<svg width="1440" height="901" viewBox="0 0 1440 901" fill="none" xmlns="http://www.w3.org/2000/svg">
<g clip-path="url(#clip0_792_8656)">
<path d="M1299.69 289.404L1299.33 290.336L1299.69 289.404ZM-8.81895 122.027L-8.02828 122.501L-8.02828 122.501L-8.81895 122.027ZM1649.2 802.641C1649.61 802.204 1649.6 801.62 1649.18 801.338L1642.36 796.74C1641.94 796.458 1641.27 796.584 1640.87 797.021C1640.46 797.459 1640.47 798.042 1640.89 798.324L1646.95 802.411L1641.09 808.749C1640.69 809.186 1640.7 809.769 1641.12 810.052C1641.54 810.334 1642.2 810.208 1642.61 809.77L1649.2 802.641ZM1368.43 -45.1046L1365.54 -37.4905L1373.65 -36.3678L1376.54 -43.9819L1368.43 -45.1046ZM1370.09 -40.174C1370.55 -39.3979 1371.02 -38.6232 1371.48 -37.85L1373.38 -38.9734C1372.92 -39.7469 1372.46 -40.5219 1371.99 -41.2984L1370.09 -40.174ZM1374.23 -33.2287C1375.14 -31.6942 1376.05 -30.1658 1376.95 -28.6432L1378.86 -29.763C1377.96 -31.2861 1377.05 -32.8152 1376.14 -34.3503L1374.23 -33.2287ZM1379.64 -24.0935C1380.54 -22.5828 1381.42 -21.0781 1382.3 -19.5794L1384.21 -20.6952C1383.33 -22.1946 1382.44 -23.7 1381.55 -25.2113L1379.64 -24.0935ZM1384.93 -15.1008C1385.84 -13.5439 1386.75 -11.9934 1387.65 -10.4494L1389.56 -11.5609C1388.66 -13.1057 1387.76 -14.6569 1386.84 -16.2146L1384.93 -15.1008ZM1390.35 -5.81824C1391.24 -4.28103 1392.13 -2.75032 1393.01 -1.22612L1394.92 -2.33288C1394.04 -3.8579 1393.15 -5.3894 1392.26 -6.9274L1390.35 -5.81824ZM1395.64 3.32703C1396.5 4.83825 1397.37 6.34299 1398.23 7.84127L1400.14 6.73954C1399.29 5.2404 1398.42 3.7348 1397.55 2.22274L1395.64 3.32703ZM1400.87 12.4625C1401.76 14.0274 1402.64 15.5852 1403.52 17.1358L1405.44 16.0397C1404.56 14.4881 1403.68 12.9294 1402.79 11.3635L1400.87 12.4625ZM1406.14 21.7662C1407 23.3026 1407.86 24.8318 1408.71 26.3538L1410.64 25.2638C1409.79 23.7407 1408.93 22.2104 1408.06 20.6731L1406.14 21.7662ZM1411.25 30.8987C1412.12 32.4552 1412.98 34.0041 1413.83 35.5454L1415.76 34.4619C1414.91 32.9195 1414.05 31.3694 1413.18 29.8119L1411.25 30.8987ZM1416.43 40.2552C1417.28 41.8172 1418.13 43.3714 1418.98 44.9176L1420.91 43.8415C1420.07 42.294 1419.22 40.7386 1418.36 39.1754L1416.43 40.2552ZM1421.48 49.5328C1422.31 51.0634 1423.13 52.5861 1423.95 54.1009L1425.88 53.0327C1425.07 51.5165 1424.25 49.9925 1423.42 48.4606L1421.48 49.5328ZM1426.48 58.8369C1427.33 60.4249 1428.16 62.0041 1428.99 63.5745L1430.93 62.5153C1430.1 60.9433 1429.26 59.3626 1428.42 57.7731L1426.48 58.8369ZM1431.45 68.2596C1432.26 69.8126 1433.07 71.3568 1433.86 72.8923L1435.81 71.8429C1435.01 70.3057 1434.21 68.7598 1433.4 67.2052L1431.45 68.2596ZM1436.27 77.5592C1437.09 79.1728 1437.91 80.7766 1438.72 82.3705L1440.67 81.3321C1439.86 79.7362 1439.04 78.1305 1438.21 76.5151L1436.27 77.5592ZM1441.11 87.1231C1441.9 88.6976 1442.68 90.2622 1443.45 91.8172L1445.4 90.791C1444.63 89.2339 1443.85 87.6672 1443.07 86.0907L1441.11 87.1231ZM1445.73 96.4739C1446.53 98.1119 1447.32 99.7388 1448.1 101.355L1450.06 100.342C1449.29 98.7239 1448.5 97.0945 1447.7 95.4542L1445.73 96.4739ZM1450.4 106.17C1451.15 107.764 1451.9 109.347 1452.63 110.919L1454.6 109.922C1453.87 108.347 1453.12 106.761 1452.37 105.165L1450.4 106.17ZM1454.81 115.635C1455.57 117.295 1456.32 118.943 1457.05 120.577L1459.03 119.598C1458.3 117.96 1457.55 116.31 1456.79 114.647L1454.81 115.635ZM1459.22 125.445C1459.93 127.055 1460.62 128.652 1461.31 130.238L1463.29 129.279C1462.61 127.69 1461.91 126.089 1461.2 124.475L1459.22 125.445ZM1463.37 135.096C1464.08 136.773 1464.77 138.436 1465.45 140.085L1467.44 139.149C1466.77 137.496 1466.08 135.829 1465.37 134.148L1463.37 135.096ZM1467.43 144.989C1468.07 146.609 1468.7 148.215 1469.31 149.807L1471.32 148.899C1470.71 147.302 1470.08 145.691 1469.43 144.066L1467.43 144.989ZM1471.25 154.899C1471.87 156.586 1472.48 158.256 1473.08 159.911L1475.1 159.035C1474.5 157.375 1473.89 155.699 1473.26 154.006L1471.25 154.899ZM1474.8 164.824C1475.39 166.551 1475.96 168.26 1476.52 169.95L1478.55 169.113C1478 167.416 1477.42 165.7 1476.83 163.966L1474.8 164.824ZM1478.14 175.061C1478.66 176.745 1479.16 178.411 1479.63 180.057L1481.68 179.266C1481.2 177.612 1480.7 175.938 1480.18 174.246L1478.14 175.061ZM1481.09 185.301C1481.56 187.053 1482.01 188.783 1482.42 190.49L1484.49 189.758C1484.07 188.04 1483.62 186.301 1483.15 184.539L1481.09 185.301ZM1483.61 195.607C1484.01 197.43 1484.38 199.226 1484.72 200.995L1486.8 200.337C1486.46 198.554 1486.09 196.745 1485.69 194.91L1483.61 195.607ZM1485.64 206.221C1485.93 208.056 1486.19 209.86 1486.41 211.634L1488.51 211.072C1488.29 209.28 1488.03 207.459 1487.73 205.607L1485.64 206.221ZM1486.98 217.021C1487.14 218.87 1487.26 220.684 1487.33 222.462L1489.44 222.029C1489.36 220.227 1489.24 218.39 1489.08 216.519L1486.98 217.021ZM1487.42 227.975C1487.4 229.86 1487.33 231.702 1487.2 233.501L1489.31 233.248C1489.43 231.415 1489.51 229.541 1489.53 227.625L1487.42 227.975ZM1486.63 239.065C1486.37 240.99 1486.03 242.861 1485.63 244.679L1487.7 244.683C1488.11 242.815 1488.45 240.897 1488.72 238.929L1486.63 239.065ZM1484.18 250.158C1483.57 252.086 1482.87 253.946 1482.1 255.739L1484.04 256.105C1484.85 254.243 1485.57 252.316 1486.2 250.326L1484.18 250.158ZM1479.4 261.086C1478.38 262.859 1477.26 264.557 1476.04 266.183L1477.72 267.008C1479 265.303 1480.17 263.525 1481.24 261.674L1479.4 261.086ZM1471.95 270.969C1470.49 272.476 1468.93 273.911 1467.26 275.274L1468.51 276.549C1470.26 275.12 1471.9 273.614 1473.43 272.031L1471.95 270.969ZM1462.03 279.082C1460.25 280.241 1458.37 281.337 1456.39 282.371L1457.17 283.955C1459.22 282.882 1461.18 281.741 1463.04 280.532L1462.03 279.082ZM1450.56 285.111C1448.6 285.939 1446.56 286.716 1444.44 287.443L1444.83 289.19C1447.01 288.444 1449.11 287.644 1451.13 286.79L1450.56 285.111ZM1438.29 289.34C1436.28 289.899 1434.2 290.42 1432.05 290.901L1432.17 292.726C1434.36 292.236 1436.48 291.705 1438.54 291.133L1438.29 289.34ZM1425.76 292.166C1423.72 292.531 1421.63 292.865 1419.49 293.167L1419.42 295.028C1421.59 294.722 1423.7 294.384 1425.77 294.013L1425.76 292.166ZM1413.21 293.949C1411.15 294.172 1409.05 294.368 1406.9 294.539L1406.68 296.417C1408.85 296.244 1410.97 296.046 1413.05 295.82L1413.21 293.949ZM1400.71 294.954C1398.62 295.068 1396.49 295.16 1394.31 295.23L1393.98 297.114C1396.17 297.044 1398.32 296.951 1400.43 296.836L1400.71 294.954ZM1388.26 295.364C1386.21 295.39 1384.12 295.398 1382 295.387L1381.58 297.272C1383.71 297.283 1385.81 297.276 1387.88 297.249L1388.26 295.364ZM1375.8 295.303C1373.81 295.261 1371.79 295.203 1369.73 295.129L1369.24 297.013C1371.31 297.087 1373.34 297.145 1375.35 297.188L1375.8 295.303ZM1363.5 294.863C1361.5 294.764 1359.47 294.652 1357.41 294.525L1356.87 296.407C1358.93 296.533 1360.97 296.646 1362.98 296.746L1363.5 294.863ZM1351.39 294.121C1349.36 293.974 1347.3 293.814 1345.22 293.641L1344.63 295.519C1346.72 295.692 1348.78 295.853 1350.82 296.001L1351.39 294.121ZM1339.16 293.108C1337.19 292.926 1335.21 292.733 1333.21 292.53L1332.58 294.404C1334.58 294.608 1336.57 294.801 1338.54 294.984L1339.16 293.108ZM1327.14 291.889C1325.11 291.667 1323.07 291.434 1321 291.191L1320.34 293.061C1322.41 293.305 1324.46 293.538 1326.49 293.761L1327.14 291.889ZM1315.15 290.481C1313.18 290.236 1311.19 289.981 1309.19 289.718L1308.49 291.585C1310.5 291.849 1312.49 292.104 1314.47 292.35L1315.15 290.481ZM1303.12 288.9C1302.1 288.76 1301.07 288.617 1300.04 288.472L1299.33 290.336C1300.36 290.481 1301.39 290.625 1302.41 290.766L1303.12 288.9ZM1300.04 288.472C1299.06 288.333 1298.08 288.194 1297.1 288.054L1296.38 289.918C1297.36 290.058 1298.35 290.197 1299.33 290.336L1300.04 288.472ZM1291.2 287.206C1289.23 286.921 1287.26 286.633 1285.3 286.342L1284.57 288.204C1286.54 288.495 1288.51 288.784 1290.48 289.069L1291.2 287.206ZM1279.39 285.461C1277.42 285.164 1275.45 284.865 1273.48 284.564L1272.74 286.424C1274.71 286.726 1276.69 287.026 1278.66 287.322L1279.39 285.461ZM1267.56 283.651C1265.59 283.344 1263.62 283.034 1261.64 282.722L1260.9 284.581C1262.87 284.893 1264.85 285.203 1266.82 285.511L1267.56 283.651ZM1255.72 281.777C1253.74 281.46 1251.77 281.14 1249.79 280.817L1249.03 282.675C1251.01 282.998 1252.99 283.318 1254.97 283.636L1255.72 281.777ZM1243.93 279.854C1241.98 279.531 1240.03 279.206 1238.08 278.878L1237.31 280.734C1239.26 281.062 1241.22 281.388 1243.17 281.711L1243.93 279.854ZM1232.22 277.886C1230.26 277.554 1228.31 277.219 1226.35 276.881L1225.58 278.736C1227.53 279.073 1229.49 279.409 1231.45 279.742L1232.22 277.886ZM1220.49 275.862C1218.53 275.52 1216.57 275.175 1214.62 274.829L1213.83 276.682C1215.79 277.029 1217.75 277.373 1219.71 277.716L1220.49 275.862ZM1208.75 273.782C1206.79 273.431 1204.83 273.077 1202.87 272.722L1202.08 274.573C1204.04 274.929 1206 275.283 1207.96 275.634L1208.75 273.782ZM1197.01 271.651C1195.07 271.295 1193.13 270.937 1191.2 270.577L1190.4 272.427C1192.34 272.787 1194.28 273.146 1196.21 273.502L1197.01 271.651ZM1185.38 269.489C1183.44 269.125 1181.5 268.759 1179.56 268.39L1178.75 270.239C1180.69 270.607 1182.63 270.974 1184.57 271.339L1185.38 269.489ZM1173.74 267.278C1171.8 266.906 1169.86 266.531 1167.91 266.155L1167.1 268.002C1169.04 268.379 1170.98 268.753 1172.93 269.126L1173.74 267.278ZM1162.09 265.019C1160.15 264.639 1158.21 264.256 1156.26 263.872L1155.44 265.718C1157.38 266.102 1159.33 266.485 1161.27 266.866L1162.09 265.019ZM1150.44 262.713C1148.5 262.327 1146.56 261.938 1144.63 261.548L1143.8 263.392C1145.74 263.783 1147.67 264.172 1149.61 264.558L1150.44 262.713ZM1138.85 260.377C1136.92 259.985 1134.99 259.591 1133.07 259.196L1132.23 261.039C1134.16 261.434 1136.09 261.829 1138.02 262.221L1138.85 260.377ZM1127.28 258.004C1125.36 257.605 1123.43 257.204 1121.5 256.801L1120.66 258.643C1122.59 259.046 1124.52 259.447 1126.44 259.846L1127.28 258.004ZM1115.72 255.589C1113.79 255.183 1111.86 254.776 1109.93 254.366L1109.08 256.207C1111.01 256.616 1112.94 257.024 1114.87 257.43L1115.72 255.589ZM1104.15 253.134C1102.22 252.722 1100.29 252.308 1098.36 251.892L1097.51 253.731C1099.44 254.147 1101.37 254.561 1103.3 254.974L1104.15 253.134ZM1092.6 250.646C1090.68 250.229 1088.77 249.812 1086.85 249.393L1085.99 251.23C1087.91 251.65 1089.82 252.068 1091.74 252.484L1092.6 250.646ZM1081.1 248.131C1079.18 247.709 1077.27 247.285 1075.35 246.86L1074.48 248.697C1076.4 249.122 1078.32 249.546 1080.24 249.968L1081.1 248.131ZM1069.6 245.581C1067.69 245.154 1065.77 244.724 1063.85 244.294L1062.98 246.129C1064.9 246.56 1066.81 246.989 1068.73 247.417L1069.6 245.581ZM1058.11 242.998C1056.19 242.565 1054.27 242.13 1052.36 241.694L1051.48 243.528C1053.4 243.964 1055.31 244.399 1057.23 244.833L1058.11 242.998ZM1046.61 240.383C1044.7 239.945 1042.79 239.506 1040.88 239.067L1040 240.899C1041.91 241.34 1043.82 241.779 1045.73 242.216L1046.61 240.383ZM1035.16 237.744C1033.25 237.302 1031.34 236.859 1029.44 236.415L1028.55 238.247C1030.46 238.691 1032.36 239.135 1034.27 239.577L1035.16 237.744ZM1023.71 235.079C1021.81 234.632 1019.9 234.184 1018 233.735L1017.1 235.566C1019.01 236.015 1020.92 236.463 1022.83 236.91L1023.71 235.079ZM1012.28 232.385C1010.37 231.934 1008.47 231.482 1006.56 231.028L1005.67 232.858C1007.57 233.312 1009.48 233.764 1011.38 234.215L1012.28 232.385ZM1000.85 229.665C998.944 229.21 997.04 228.754 995.137 228.296L994.237 230.125C996.141 230.582 998.045 231.039 999.95 231.495L1000.85 229.665ZM989.431 226.922C987.53 226.463 985.63 226.003 983.73 225.542L982.825 227.37C984.726 227.831 986.627 228.291 988.529 228.75L989.431 226.922ZM978.03 224.157C976.131 223.694 974.232 223.23 972.334 222.766L971.426 224.592C973.325 225.057 975.224 225.521 977.124 225.984L978.03 224.157ZM966.64 221.369C964.742 220.903 962.845 220.436 960.949 219.968L960.037 221.794C961.934 222.262 963.832 222.729 965.73 223.196L966.64 221.369ZM955.26 218.562C953.365 218.092 951.47 217.622 949.575 217.151L948.66 218.976C950.555 219.447 952.451 219.918 954.347 220.387L955.26 218.562ZM943.893 215.735C941.998 215.262 940.102 214.788 938.207 214.313L937.289 216.137C939.184 216.612 941.08 217.086 942.977 217.56L943.893 215.735ZM932.523 212.887C930.629 212.41 928.735 211.933 926.842 211.456L925.92 213.279C927.814 213.757 929.708 214.234 931.603 214.71L932.523 212.887ZM921.165 210.021C919.273 209.542 917.382 209.063 915.491 208.583L914.567 210.406C916.458 210.886 918.349 211.365 920.242 211.844L921.165 210.021ZM909.822 207.141C907.933 206.66 906.044 206.178 904.156 205.696L903.229 207.518C905.118 208 907.006 208.482 908.896 208.963L909.822 207.141ZM898.495 204.248C896.609 203.764 894.723 203.28 892.839 202.796L891.909 204.618C893.794 205.102 895.68 205.586 897.567 206.069L898.495 204.248ZM887.166 201.337C885.274 200.849 883.383 200.362 881.493 199.873L880.561 201.694C882.452 202.183 884.343 202.67 886.235 203.158L887.166 201.337ZM875.826 198.408C873.937 197.919 872.05 197.43 870.163 196.94L869.229 198.76C871.116 199.25 873.004 199.739 874.893 200.228L875.826 198.408ZM864.506 195.47C862.621 194.979 860.737 194.489 858.853 193.998L857.917 195.818C859.801 196.309 861.685 196.799 863.571 197.29L864.506 195.47ZM853.206 192.524C851.325 192.033 849.444 191.541 847.565 191.049L846.627 192.868C848.507 193.36 850.388 193.852 852.269 194.344L853.206 192.524ZM841.929 189.572C840.038 189.076 838.149 188.58 836.261 188.084L835.321 189.903C837.21 190.399 839.099 190.895 840.99 191.391L841.929 189.572ZM830.596 186.595C828.709 186.098 826.823 185.601 824.938 185.105L823.997 186.923C825.882 187.42 827.768 187.917 829.656 188.413L830.596 186.595ZM819.285 183.614C817.402 183.116 815.52 182.619 813.639 182.122L812.697 183.94C814.578 184.437 816.46 184.935 818.343 185.432L819.285 183.614ZM807.999 180.63C806.121 180.133 804.243 179.636 802.366 179.138L801.423 180.956C803.3 181.454 805.178 181.951 807.057 182.448L807.999 180.63ZM796.74 177.647C794.864 177.149 792.988 176.651 791.114 176.153L790.17 177.971C792.044 178.469 793.919 178.966 795.796 179.464L796.74 177.647ZM785.446 174.647C783.557 174.146 781.67 173.644 779.784 173.142L778.839 174.959C780.725 175.461 782.612 175.963 784.501 176.465L785.446 174.647ZM774.13 171.638C772.247 171.136 770.364 170.635 768.484 170.134L767.538 171.951C769.419 172.452 771.301 172.953 773.185 173.455L774.13 171.638ZM762.845 168.632C760.966 168.131 759.089 167.631 757.213 167.131L756.267 168.948C758.143 169.448 760.02 169.948 761.899 170.449L762.845 168.632ZM751.59 165.632C749.717 165.132 747.845 164.633 745.975 164.134L745.028 165.951C746.899 166.45 748.771 166.949 750.644 167.449L751.59 165.632ZM740.342 162.632C738.45 162.127 736.56 161.623 734.671 161.119L733.724 162.936C735.613 163.44 737.504 163.944 739.395 164.449L740.342 162.632ZM729.008 159.609C727.122 159.106 725.238 158.603 723.355 158.101L722.408 159.918C724.291 160.42 726.176 160.923 728.062 161.426L729.008 159.609ZM717.71 156.596C715.83 156.095 713.951 155.595 712.074 155.095L711.128 156.912C713.005 157.412 714.884 157.912 716.764 158.414L717.71 156.596ZM706.448 153.596C704.574 153.097 702.702 152.599 700.831 152.101L699.885 153.918C701.756 154.416 703.628 154.914 705.502 155.413L706.448 153.596ZM695.223 150.61C693.334 150.107 691.447 149.606 689.561 149.105L688.616 150.922C690.502 151.423 692.389 151.925 694.278 152.427L695.223 150.61ZM683.883 147.597C681.993 147.096 680.104 146.595 678.216 146.094L677.273 147.912C679.16 148.412 681.049 148.913 682.939 149.415L683.883 147.597ZM672.559 144.596C670.676 144.097 668.793 143.599 666.913 143.102L665.971 144.92C667.851 145.417 669.733 145.915 671.616 146.414L672.559 144.596ZM661.278 141.613C659.401 141.118 657.526 140.623 655.653 140.13L654.712 141.948C656.585 142.442 658.459 142.936 660.336 143.432L661.278 141.613ZM650.039 138.652C648.162 138.158 646.286 137.665 644.413 137.173L643.474 138.992C645.347 139.484 647.222 139.976 649.099 140.47L650.039 138.652ZM638.714 135.678C636.817 135.181 634.921 134.684 633.027 134.189L632.09 136.009C633.983 136.504 635.878 137 637.776 137.497L638.714 135.678ZM627.352 132.707C625.463 132.214 623.575 131.722 621.69 131.232L620.754 133.052C622.64 133.542 624.527 134.034 626.416 134.527L627.352 132.707ZM616.039 129.763C614.158 129.275 612.279 128.788 610.401 128.302L609.469 130.122C611.345 130.608 613.224 131.095 615.105 131.583L616.039 129.763ZM604.776 126.847C602.903 126.364 601.032 125.882 599.164 125.401L598.233 127.222C600.102 127.703 601.972 128.185 603.845 128.668L604.776 126.847ZM593.453 123.934C591.547 123.445 589.643 122.957 587.741 122.471L586.813 124.293C588.715 124.779 590.618 125.266 592.524 125.755L593.453 123.934ZM582.042 121.017C580.145 120.533 578.25 120.051 576.358 119.571L575.434 121.394C577.326 121.874 579.22 122.356 581.117 122.839L582.042 121.017ZM570.688 118.135C568.8 117.658 566.915 117.182 565.032 116.708L564.111 118.532C565.993 119.006 567.878 119.481 569.765 119.958L570.688 118.135ZM559.391 115.29C557.513 114.82 555.637 114.35 553.764 113.883L552.847 115.708C554.72 116.175 556.594 116.644 558.472 117.115L559.391 115.29ZM548.046 112.459C546.129 111.983 544.215 111.508 542.303 111.036L541.391 112.861C543.302 113.334 545.215 113.808 547.131 114.284L548.046 112.459ZM536.576 109.623C534.67 109.154 532.767 108.687 530.866 108.222L529.958 110.049C531.858 110.514 533.761 110.981 535.666 111.449L536.576 109.623ZM525.172 106.833C523.276 106.372 521.384 105.912 519.494 105.455L518.591 107.283C520.48 107.74 522.371 108.199 524.266 108.66L525.172 106.833ZM513.833 104.09C511.949 103.637 510.067 103.186 508.189 102.737L507.291 104.566C509.168 105.015 511.049 105.466 512.932 105.918L513.833 104.09ZM502.431 101.365C500.502 100.907 498.577 100.451 496.654 99.9981L495.762 101.829C497.683 102.282 499.608 102.737 501.536 103.195L502.431 101.365ZM490.895 98.645C488.979 98.1963 487.065 97.75 485.155 97.306L484.269 99.1381C486.178 99.5818 488.09 100.028 490.006 100.476L490.895 98.645ZM479.434 95.9816C477.53 95.5425 475.629 95.106 473.732 94.6719L472.852 96.5055C474.748 96.9393 476.648 97.3756 478.551 97.8144L479.434 95.9816ZM468.049 93.3772C466.154 92.9473 464.263 92.52 462.375 92.0953L461.502 93.9305C463.389 94.3549 465.279 94.7819 467.173 95.2115L468.049 93.3772ZM456.539 90.7888C454.598 90.3561 452.66 89.9262 450.725 89.4992L449.86 91.3361C451.793 91.7628 453.73 92.1924 455.67 92.6248L456.539 90.7888ZM444.932 88.2269C443.005 87.8058 441.082 87.3875 439.162 86.9723L438.305 88.8109C440.223 89.2258 442.145 89.6438 444.071 90.0647L444.932 88.2269ZM433.413 85.7355C431.5 85.3262 429.591 84.92 427.686 84.5169L426.837 86.3573C428.741 86.7601 430.649 87.166 432.56 87.575L433.413 85.7355ZM421.981 83.3168C420.04 82.9108 418.103 82.508 416.17 82.1087L415.331 83.9511C417.262 84.3501 419.198 84.7525 421.138 85.1582L421.981 83.3168ZM410.294 80.9027C408.34 80.5042 406.39 80.1092 404.444 79.7178L403.615 81.5622C405.559 81.9533 407.508 82.348 409.46 82.7462L410.294 80.9027ZM398.618 78.5542C396.681 78.1699 394.747 77.7892 392.818 77.4122L392 79.2588C393.927 79.6354 395.859 80.0157 397.795 80.3997L398.618 78.5542ZM387.044 76.2922C385.123 75.9226 383.207 75.5567 381.295 75.1946L380.488 77.0434C382.398 77.4051 384.313 77.7707 386.231 78.1399L387.044 76.2922ZM375.472 74.101C373.487 73.7314 371.507 73.366 369.531 73.0048L368.737 74.8559C370.71 75.2167 372.688 75.5817 374.671 75.9509L375.472 74.101ZM363.62 71.9341C361.654 71.5815 359.693 71.2332 357.738 70.8892L356.957 72.7427C358.91 73.0863 360.869 73.4342 362.832 73.7864L363.62 71.9341ZM351.885 69.8706C349.939 69.5355 347.998 69.2048 346.062 68.8786L345.295 70.7346C347.229 71.0604 349.167 71.3906 351.111 71.7254L351.885 69.8706ZM340.268 67.9137C338.294 67.5887 336.325 67.2685 334.362 66.9532L333.611 68.8116C335.572 69.1266 337.538 69.4463 339.509 69.7709L340.268 67.9137ZM328.356 66.0013C326.36 65.6891 324.369 65.3822 322.385 65.0804L321.65 66.9415C323.632 67.2428 325.62 67.5494 327.613 67.8611L328.356 66.0013ZM316.447 64.191C314.473 63.8998 312.506 63.6139 310.544 63.3335L309.827 65.1973C311.786 65.4773 313.751 65.7627 315.721 66.0534L316.447 64.191ZM304.675 62.5083C302.725 62.2387 300.78 61.9745 298.842 61.7159L298.145 63.5824C300.08 63.8405 302.021 64.1042 303.968 64.3734L304.675 62.5083ZM292.753 60.9196C290.725 60.6596 288.703 60.4058 286.688 60.1584L286.012 62.0276C288.024 62.2746 290.042 62.5279 292.067 62.7874L292.753 60.9196ZM280.663 59.4351C278.661 59.2004 276.666 58.9721 274.677 58.7503L274.025 60.6222C276.009 60.8436 278 61.0714 279.998 61.3057L280.663 59.4351ZM268.733 58.1045C266.758 57.8958 264.791 57.6937 262.83 57.4982L262.202 59.3728C264.159 59.5678 266.122 59.7695 268.093 59.9778L268.733 58.1045ZM256.728 56.9096C254.667 56.7175 252.615 56.533 250.57 56.3562L249.97 58.2333C252.01 58.4097 254.058 58.5937 256.114 58.7854L256.728 56.9096ZM244.46 55.8489C242.431 55.6876 240.411 55.534 238.398 55.3884L237.828 57.2679C239.836 57.4131 241.851 57.5663 243.875 57.7272L244.46 55.8489ZM232.384 54.9752C230.387 54.8454 228.398 54.7237 226.418 54.61L225.88 56.4916C227.855 56.6049 229.838 56.7264 231.83 56.8558L232.384 54.9752ZM220.198 54.2785C218.109 54.1758 216.03 54.0824 213.96 53.9985L213.46 55.8819C215.523 55.9656 217.596 56.0586 219.679 56.161L220.198 54.2785ZM207.779 53.775C205.728 53.71 203.687 53.6546 201.655 53.6088L201.194 55.4935C203.219 55.5391 205.254 55.5944 207.298 55.6591L207.779 53.775ZM195.588 53.5007C193.539 53.474 191.5 53.4574 189.471 53.4511L189.054 55.3363C191.075 55.3426 193.107 55.3591 195.149 55.3858L195.588 53.5007ZM183.114 53.4655C181.006 53.4818 178.909 53.5095 176.824 53.5489L176.457 55.4338C178.534 55.3945 180.622 55.3669 182.721 55.3507L183.114 53.4655ZM170.602 53.7023C168.54 53.7652 166.489 53.8399 164.449 53.9266L164.137 55.8098C166.167 55.7235 168.209 55.6491 170.262 55.5865L170.602 53.7023ZM158.332 54.2246C156.168 54.3437 154.018 54.4767 151.882 54.6239L151.631 56.5036C153.757 56.3572 155.896 56.2248 158.049 56.1064L158.332 54.2246ZM145.513 55.1081C143.404 55.2838 141.309 55.4738 139.227 55.6784L139.046 57.5523C141.116 57.3489 143.199 57.1599 145.297 56.9852L145.513 55.1081ZM133.024 56.3361C130.932 56.5743 128.855 56.8278 126.793 57.0968L126.688 58.9619C128.737 58.6947 130.801 58.4428 132.88 58.2061L133.024 56.3361ZM120.309 58.0009C118.164 58.3198 116.036 58.6561 113.924 59.0102L113.91 60.862C116.006 60.5105 118.119 60.1766 120.249 59.86L120.309 58.0009ZM107.639 60.1261C105.561 60.516 103.499 60.9239 101.455 61.3501L101.538 63.1835C103.565 62.7608 105.61 62.3562 107.672 61.9694L107.639 60.1261ZM95.0399 62.7603C92.8838 63.2594 90.7475 63.7798 88.6311 64.3219L88.8281 66.1289C90.9245 65.5919 93.0413 65.0762 95.1782 64.5815L95.0399 62.7603ZM82.3417 66.0135C80.2654 66.5992 78.2092 67.2068 76.1733 67.8367L76.4954 69.6083C78.5096 68.9851 80.5445 68.3837 82.6 67.8039L82.3417 66.0135ZM69.9067 69.8681C67.7831 70.5887 65.6828 71.3349 63.6061 72.1071L64.0705 73.8302C66.1223 73.0673 68.1981 72.3298 70.2977 71.6174L69.9067 69.8681ZM57.447 74.502C55.4178 75.3266 53.4124 76.1775 51.4311 77.0551L52.0498 78.7155C54.0046 77.8495 55.9839 77.0097 57.9874 76.1956L57.447 74.502ZM45.3827 79.8543C43.3581 80.8326 41.3604 81.8406 39.3898 82.8789L40.1772 84.4575C42.1189 83.4345 44.0879 82.4409 46.0841 81.4763L45.3827 79.8543ZM33.5599 86.0848C31.644 87.1839 29.7557 88.3137 27.8951 89.4744L28.8578 90.9524C30.6889 89.8099 32.548 88.6977 34.4346 87.6154L33.5599 86.0848ZM22.2936 93.1205C20.4511 94.3715 18.638 95.6552 16.8547 96.9721L17.9961 98.3286C19.7499 97.0334 21.5333 95.7708 23.3459 94.5401L22.2936 93.1205ZM11.5946 101.023C9.87567 102.403 8.1868 103.817 6.5283 105.264L7.84239 106.482C9.47299 105.059 11.1335 103.669 12.8236 102.312L11.5946 101.023ZM1.68937 109.666C0.106436 111.166 -1.44631 112.7 -2.96856 114.269L-1.49557 115.336C0.00146124 113.794 1.52832 112.285 3.08472 110.81L1.68937 109.666ZM-7.44343 119.075C-8.1732 119.892 -8.89528 120.718 -9.60963 121.553L-8.02828 122.501C-7.32538 121.68 -6.61496 120.867 -5.89703 120.063L-7.44343 119.075ZM-9.60963 121.553C-10.2578 122.31 -10.9043 123.083 -11.5487 123.872L-9.93 124.776C-9.29747 124.001 -8.6635 123.243 -8.02828 122.501L-9.60963 121.553ZM-15.3907 128.796C-16.6626 130.5 -17.9253 132.265 -19.1773 134.091L-17.436 134.831C-16.2014 133.031 -14.9574 131.292 -13.7058 129.615L-15.3907 128.796ZM-22.7871 139.57C-23.8432 141.237 -24.8905 142.947 -25.9278 144.699L-24.1028 145.308C-23.0769 143.575 -22.0419 141.885 -20.9986 140.238L-22.7871 139.57ZM-29.009 150.082C-30.0255 151.918 -31.0312 153.795 -32.025 155.712L-30.1388 156.21C-29.154 154.311 -28.158 152.452 -27.1516 150.634L-29.009 150.082ZM-34.8326 161.3C-35.6862 163.053 -36.5299 164.837 -37.3631 166.65L-35.4317 167.056C-34.6051 165.257 -33.7682 163.488 -32.9218 161.75L-34.8326 161.3ZM-39.8302 172.177C-40.6415 174.048 -41.4416 175.949 -42.2298 177.877L-40.2626 178.201C-39.4799 176.286 -38.6854 174.399 -37.8801 172.541L-39.8302 172.177ZM-44.5472 183.719C-45.2328 185.5 -45.9084 187.304 -46.5732 189.129L-44.5776 189.379C-43.9169 187.565 -43.2456 185.773 -42.5644 184.004L-44.5472 183.719ZM-48.5354 194.668C-49.1785 196.536 -49.8105 198.425 -50.4308 200.334L-48.4123 200.518C-47.7955 198.619 -47.1672 196.741 -46.5279 194.884L-48.5354 194.668ZM-52.2563 206.124C-52.8422 208.039 -53.4164 209.974 -53.9784 211.928L-51.9405 212.048C-51.3814 210.105 -50.8103 208.18 -50.2276 206.275L-52.2563 206.124ZM-55.5132 217.422C-56.014 219.27 -56.5039 221.133 -56.9826 223.012L-54.9294 223.076C-54.4531 221.207 -53.9656 219.352 -53.4674 217.514L-55.5132 217.422ZM-58.3844 228.696C-58.8402 230.605 -59.2842 232.53 -59.7163 234.47L-57.65 234.479C-57.22 232.548 -56.778 230.633 -56.3244 228.732L-58.3844 228.696ZM-60.9761 240.332C-61.3561 242.168 -61.7254 244.016 -62.0836 245.876L-60.0065 245.833C-59.6499 243.981 -59.2823 242.142 -58.904 240.314L-60.9761 240.332ZM-63.1163 251.446C-63.4494 253.314 -63.7714 255.194 -64.0818 257.086L-61.996 256.994C-61.6869 255.111 -61.3664 253.239 -61.0347 251.379L-63.1163 251.446ZM-64.9782 262.794C-65.2652 264.707 -65.5405 266.632 -65.8037 268.568L-63.7107 268.428C-63.4486 266.501 -63.1745 264.584 -62.8886 262.678L-64.9782 262.794ZM-66.5489 274.343C-66.7721 276.171 -66.9846 278.009 -67.1859 279.854L-65.0873 279.669C-64.8868 277.831 -64.6752 276.001 -64.4529 274.18L-66.5489 274.343ZM-67.7563 285.419C-67.9353 287.282 -68.1028 289.154 -68.2589 291.034L-66.1561 290.805C-66.0006 288.932 -65.8337 287.067 -65.6555 285.211L-67.7563 285.419ZM-68.692 296.699C-68.8246 298.596 -68.9454 300.5 -69.0541 302.413L-66.9483 302.14C-66.8399 300.235 -66.7196 298.337 -66.5875 296.448L-68.692 296.699ZM-69.3436 308.165C-69.4231 309.982 -69.4918 311.804 -69.5492 313.634L-67.4415 313.318C-67.3842 311.496 -67.3159 309.68 -67.2367 307.871L-69.3436 308.165ZM-69.688 319.141C-69.7231 320.983 -69.7467 322.831 -69.7589 324.685L-67.6504 324.33C-67.6383 322.482 -67.6147 320.64 -67.5798 318.805L-69.688 319.141ZM-69.7605 330.266C-69.7493 332.133 -69.7264 334.005 -69.6916 335.882L-67.5833 335.486C-67.618 333.615 -67.6408 331.75 -67.652 329.89L-69.7605 330.266ZM-69.551 341.532C-69.4936 343.371 -69.4247 345.215 -69.344 347.065L-67.237 346.628C-67.3174 344.786 -67.386 342.948 -67.4432 341.116L-69.551 341.532ZM-69.075 352.48C-68.9741 354.289 -68.8619 356.103 -68.7383 357.922L-66.6334 357.447C-66.7566 355.635 -66.8684 353.827 -66.9689 352.024L-69.075 352.48ZM-68.3329 363.389C-68.1861 365.216 -68.0278 367.047 -67.8576 368.882L-65.7558 368.369C-65.9254 366.54 -66.0832 364.716 -66.2294 362.896L-68.3329 363.389ZM-67.3116 374.398C-67.1177 376.241 -66.9117 378.087 -66.6937 379.937L-64.5959 379.386C-64.8132 377.542 -65.0184 375.702 -65.2117 373.866L-67.3116 374.398ZM-66.0247 385.33C-65.7944 387.098 -65.5529 388.869 -65.3001 390.644L-63.2071 390.056C-63.459 388.288 -63.6997 386.522 -63.9292 384.76L-66.0247 385.33ZM-64.5075 395.975C-64.2319 397.755 -63.9448 399.538 -63.6461 401.323L-61.5587 400.699C-61.8564 398.92 -62.1425 397.143 -62.4172 395.369L-64.5075 395.975ZM-62.7148 406.687C-62.3927 408.478 -62.0588 410.271 -61.7129 412.066L-59.632 411.406C-59.9767 409.617 -60.3095 407.83 -60.6306 406.045L-62.7148 406.687ZM-60.6393 417.458C-60.2763 419.225 -59.9016 420.993 -59.5151 422.764L-57.4416 422.068C-57.8267 420.303 -58.2002 418.541 -58.562 416.78L-60.6393 417.458ZM-58.353 427.938C-57.9543 429.665 -57.5444 431.393 -57.1231 433.123L-55.0575 432.393C-55.4774 430.669 -55.886 428.946 -56.2833 427.225L-58.353 427.938ZM-55.8245 438.317C-55.3802 440.05 -54.9243 441.784 -54.4567 443.52L-52.3999 442.755C-52.866 441.025 -53.3204 439.297 -53.7633 437.57L-55.8245 438.317ZM-53.0186 448.73C-52.5275 450.468 -52.0245 452.207 -51.5096 453.947L-49.4626 453.148C-49.9758 451.413 -50.4771 449.68 -50.9666 447.948L-53.0186 448.73ZM-49.9289 459.169C-49.4099 460.847 -48.8796 462.525 -48.3381 464.204L-46.3013 463.371C-46.8411 461.698 -47.3697 460.025 -47.887 458.353L-49.9289 459.169ZM-46.6899 469.211C-46.1292 470.88 -45.5573 472.55 -44.9739 474.221L-42.9482 473.356C-43.5296 471.691 -44.0997 470.026 -44.6585 468.362L-46.6899 469.211ZM-43.1894 479.233C-42.5831 480.905 -41.9652 482.576 -41.3357 484.248L-39.3217 483.35C-39.9492 481.684 -40.5651 480.018 -41.1695 478.352L-43.1894 479.233ZM-39.4121 489.263C-38.7592 490.935 -38.0945 492.607 -37.418 494.279L-35.4166 493.349C-36.091 491.682 -36.7535 490.016 -37.4044 488.349L-39.4121 489.263ZM-35.3525 499.294C-34.6808 500.897 -33.998 502.5 -33.3042 504.103L-31.316 503.141C-32.0076 501.544 -32.6882 499.946 -33.3577 498.348L-35.3525 499.294ZM-31.1925 508.902C-30.4774 510.501 -29.7512 512.101 -29.0136 513.699L-27.0391 512.707C-27.7743 511.114 -28.4982 509.52 -29.211 507.925L-31.1925 508.902ZM-26.7669 518.493C-26.0067 520.091 -25.235 521.687 -24.4518 523.284L-22.4918 522.261C-23.2725 520.67 -24.0417 519.078 -24.7995 517.486L-26.7669 518.493ZM-22.0677 528.07C-21.2614 529.664 -20.4436 531.258 -19.614 532.851L-17.6691 531.799C-18.4961 530.211 -19.3114 528.622 -20.1152 527.032L-22.0677 528.07ZM-17.09 537.627C-16.2633 539.169 -15.4255 540.71 -14.5765 542.25L-12.6475 541.168C-13.4938 539.633 -14.329 538.097 -15.1531 536.56L-17.09 537.627ZM-12.0289 546.808C-11.1687 548.326 -10.2975 549.843 -9.4153 551.359L-7.50228 550.249C-8.3818 548.738 -9.25026 547.225 -10.1078 545.712L-12.0289 546.808ZM-6.73523 555.903C-5.83074 557.417 -4.91508 558.929 -3.98816 560.44L-2.09192 559.301C-3.01598 557.795 -3.92882 556.288 -4.83052 554.779L-6.73523 555.903ZM-1.17356 564.968C-0.224044 566.475 0.736817 567.982 1.70911 569.487L3.58787 568.321C2.61855 566.82 1.66063 565.319 0.71403 563.815L-1.17356 564.968ZM4.66041 573.996C5.65125 575.491 6.65351 576.984 7.66728 578.476L9.5279 577.282C8.51721 575.795 7.51799 574.307 6.53017 572.816L4.66041 573.996ZM10.6178 582.765C11.6119 584.193 12.6167 585.619 13.6323 587.044L15.4749 585.824C14.4624 584.404 13.4606 582.982 12.4694 581.558L10.6178 582.765ZM16.7114 591.312C17.7485 592.733 18.7965 594.152 19.8554 595.569L21.6794 594.324C20.6236 592.911 19.5788 591.497 18.5447 590.08L16.7114 591.312ZM23.0649 599.815C24.1457 601.228 25.2375 602.639 26.3403 604.048L28.145 602.778C27.0454 601.373 25.9569 599.966 24.8793 598.557L23.0649 599.815ZM29.6821 608.269C30.8071 609.674 31.9433 611.076 33.0907 612.477L34.8755 611.182C33.7314 609.786 32.5986 608.387 31.4769 606.986L29.6821 608.269ZM36.5536 616.656C37.6687 617.986 38.7941 619.314 39.9298 620.641L41.6947 619.322C40.5623 618 39.4401 616.675 38.3283 615.348L36.5536 616.656ZM43.368 624.613C44.5245 625.934 45.6913 627.254 46.8686 628.571L48.6134 627.229C47.4395 625.916 46.276 624.6 45.1229 623.282L43.368 624.613ZM50.432 632.515C51.6303 633.828 52.8391 635.138 54.0585 636.445L55.7828 635.081C54.5668 633.777 53.3614 632.471 52.1666 631.162L50.432 632.515ZM57.7486 640.36C58.9893 641.663 60.2406 642.963 61.5027 644.26L63.2059 642.874C61.9474 641.58 60.6996 640.284 59.4624 638.985L57.7486 640.36ZM65.3212 648.144C66.6048 649.436 67.8992 650.726 69.2045 652.012L70.8862 650.604C69.5845 649.321 68.2937 648.036 67.0137 646.747L65.3212 648.144ZM73.0318 655.747C74.2926 656.965 75.5634 658.18 76.8441 659.393L78.5046 657.964C77.2274 656.755 75.9602 655.543 74.7028 654.329L73.0318 655.747ZM80.716 663.023C82.0165 664.231 83.3271 665.435 84.6477 666.637L86.2869 665.189C84.9699 663.99 83.6629 662.789 82.3659 661.585L80.716 663.023ZM88.6399 670.235C89.9807 671.432 91.3316 672.625 92.6926 673.816L94.3101 672.349C92.9527 671.161 91.6055 669.971 90.2683 668.777L88.6399 670.235ZM96.8063 677.38C98.1878 678.565 99.5794 679.748 100.981 680.927L102.577 679.44C101.179 678.264 99.7906 677.085 98.4128 675.903L96.8063 677.38ZM105.218 684.456C106.641 685.629 108.074 686.799 109.517 687.966L111.09 686.461C109.65 685.297 108.221 684.13 106.802 682.96L105.218 684.456ZM113.726 691.337C115.113 692.438 116.509 693.535 117.915 694.63L119.466 693.108C118.064 692.016 116.671 690.921 115.288 689.824L113.726 691.337ZM122.16 697.905C123.584 698.994 125.018 700.08 126.462 701.162L127.991 699.623C126.551 698.543 125.121 697.46 123.7 696.374L122.16 697.905ZM130.821 704.402C132.284 705.479 133.756 706.553 135.238 707.623L136.745 706.068C135.267 705 133.798 703.929 132.339 702.855L130.821 704.402ZM139.712 710.826C141.214 711.891 142.724 712.952 144.245 714.01L145.73 712.439C144.213 711.384 142.706 710.325 141.208 709.263L139.712 710.826ZM148.836 717.175C150.376 718.227 151.926 719.276 153.486 720.321L154.948 718.734C153.392 717.691 151.846 716.646 150.309 715.596L148.836 717.175ZM158.153 723.419C159.645 724.401 161.145 725.379 162.655 726.354L164.095 724.753C162.589 723.78 161.092 722.804 159.604 721.825L158.153 723.419ZM167.21 729.27C168.737 730.24 170.273 731.206 171.818 732.168L173.236 730.553C171.695 729.593 170.162 728.629 168.639 727.662L167.21 729.27ZM176.48 735.048C178.043 736.004 179.615 736.958 181.196 737.908L182.592 736.28C181.015 735.332 179.446 734.38 177.887 733.426L176.48 735.048ZM185.966 740.75C187.565 741.693 189.173 742.634 190.79 743.571L192.164 741.93C190.55 740.995 188.946 740.056 187.351 739.114L185.966 740.75ZM195.669 746.373C197.304 747.304 198.949 748.232 200.602 749.156L201.954 747.501C200.304 746.579 198.663 745.654 197.032 744.726L195.669 746.373ZM205.591 751.918C207.259 752.833 208.937 753.745 210.624 754.653L211.953 752.987C210.27 752.08 208.596 751.17 206.932 750.257L205.591 751.918ZM215.425 757.216C217.034 758.067 218.651 758.916 220.276 759.761L221.584 758.083C219.962 757.24 218.349 756.393 216.744 755.544L215.425 757.216ZM225.176 762.286C226.818 763.125 228.468 763.96 230.126 764.793L231.413 763.104C229.758 762.274 228.112 761.44 226.474 760.603L225.176 762.286ZM235.127 767.28C236.802 768.106 238.485 768.929 240.177 769.748L241.443 768.049C239.754 767.231 238.074 766.41 236.403 765.586L235.127 767.28ZM245.278 772.196C246.987 773.009 248.705 773.818 250.43 774.624L251.674 772.915C249.952 772.111 248.238 771.303 246.533 770.492L245.278 772.196ZM255.633 777.032C257.376 777.832 259.127 778.628 260.887 779.42L262.11 777.701C260.353 776.91 258.606 776.116 256.867 775.318L255.633 777.032ZM266.193 781.788C267.945 782.562 269.705 783.333 271.474 784.101L272.675 782.373C270.91 781.606 269.153 780.837 267.404 780.064L266.193 781.788ZM276.552 786.286C278.252 787.012 279.96 787.734 281.675 788.453L282.856 786.715C281.144 785.998 279.44 785.277 277.743 784.553L276.552 786.286ZM286.845 790.6C288.576 791.313 290.314 792.022 292.06 792.729L293.221 790.983C291.478 790.278 289.743 789.57 288.015 788.859L286.845 790.6ZM297.322 794.838C299.084 795.538 300.854 796.234 302.631 796.928L303.771 795.174C301.997 794.482 300.231 793.787 298.473 793.088L297.322 794.838ZM307.986 798.998C309.779 799.685 311.579 800.368 313.388 801.048L314.508 799.287C312.703 798.608 310.906 797.926 309.116 797.24L307.986 798.998ZM318.837 803.079C320.661 803.752 322.493 804.423 324.333 805.089L325.433 803.32C323.596 802.655 321.768 801.986 319.947 801.314L318.837 803.079ZM329.877 807.08C331.733 807.74 333.596 808.396 335.468 809.049L336.548 807.273C334.679 806.621 332.819 805.966 330.967 805.307L329.877 807.08ZM340.872 810.918C342.64 811.524 344.415 812.126 346.197 812.726L347.257 810.943C345.479 810.345 343.707 809.743 341.942 809.138L340.872 810.918ZM351.564 814.516C353.36 815.109 355.163 815.7 356.974 816.287L358.015 814.498C356.208 813.912 354.408 813.322 352.615 812.73L351.564 814.516ZM362.425 818.039C364.25 818.62 366.081 819.198 367.92 819.773L368.943 817.978C367.107 817.404 365.279 816.827 363.458 816.247L362.425 818.039ZM373.457 821.488C375.31 822.056 377.17 822.621 379.037 823.183L380.041 821.382C378.177 820.821 376.32 820.257 374.47 819.69L373.457 821.488ZM384.661 824.859C386.542 825.415 388.431 825.967 390.327 826.516L391.312 824.709C389.419 824.161 387.533 823.61 385.655 823.056L384.661 824.859ZM396.036 828.153C397.947 828.695 399.864 829.234 401.789 829.77L402.756 827.959C400.834 827.424 398.919 826.885 397.012 826.344L396.036 828.153ZM407.586 831.368C409.495 831.889 411.411 832.406 413.335 832.921L414.282 831.104C412.362 830.59 410.449 830.073 408.543 829.553L407.586 831.368ZM418.835 834.378C420.675 834.861 422.522 835.34 424.375 835.817L425.305 833.996C423.455 833.52 421.612 833.041 419.774 832.559L418.835 834.378ZM429.952 837.239C431.818 837.71 433.69 838.177 435.569 838.642L436.482 836.817C434.606 836.353 432.737 835.885 430.874 835.415L429.952 837.239ZM441.224 840.028C443.116 840.486 445.014 840.942 446.919 841.395L447.814 839.565C445.913 839.113 444.017 838.658 442.129 838.2L441.224 840.028ZM452.652 842.744C454.57 843.19 456.494 843.634 458.424 844.074L459.303 842.24C457.375 841.8 455.454 841.358 453.539 840.912L452.652 842.744ZM464.236 845.386C466.18 845.82 468.13 846.251 470.087 846.679L470.949 844.841C468.995 844.414 467.047 843.983 465.106 843.55L464.236 845.386ZM475.978 847.953C477.948 848.374 479.925 848.793 481.908 849.208L482.752 847.367C480.772 846.952 478.798 846.534 476.831 846.113L475.978 847.953ZM487.878 850.444C489.875 850.853 491.878 851.258 493.888 851.661L494.715 849.816C492.708 849.414 490.708 849.009 488.714 848.601L487.878 850.444ZM499.58 852.788C501.468 853.158 503.363 853.525 505.263 853.89L506.074 852.042C504.177 851.678 502.285 851.311 500.399 850.942L499.58 852.788ZM510.982 854.975C512.894 855.333 514.812 855.689 516.736 856.042L517.531 854.191C515.61 853.839 513.695 853.484 511.785 853.125L510.982 854.975ZM522.525 857.093C524.46 857.44 526.402 857.784 528.349 858.126L529.129 856.272C527.184 855.931 525.245 855.587 523.312 855.24L522.525 857.093ZM534.209 859.141C536.168 859.477 538.133 859.81 540.104 860.139L540.869 858.283C538.9 857.954 536.938 857.621 534.981 857.286L534.209 859.141ZM546.035 861.12C548.018 861.444 550.007 861.765 552.002 862.082L552.751 860.224C550.758 859.906 548.772 859.586 546.792 859.262L546.035 861.12ZM558.004 863.027C560.011 863.339 562.024 863.648 564.043 863.954L564.776 862.093C562.76 861.787 560.75 861.479 558.745 861.167L558.004 863.027ZM570.117 864.863C572.148 865.163 574.184 865.46 576.227 865.754L576.945 863.89C574.905 863.597 572.871 863.3 570.843 863.001L570.117 864.863ZM582.374 866.626C584.356 866.904 586.344 867.179 588.337 867.451L589.04 865.585C587.049 865.313 585.064 865.039 583.084 864.762L582.374 866.626ZM594.137 868.231C596.075 868.489 598.019 868.744 599.969 868.996L600.658 867.129C598.711 866.877 596.769 866.622 594.833 866.365L594.137 868.231ZM605.832 869.745C607.792 869.992 609.757 870.236 611.727 870.477L612.402 868.608C610.434 868.367 608.471 868.123 606.514 867.877L605.832 869.745ZM617.655 871.193C619.636 871.429 621.622 871.662 623.614 871.893L624.275 870.022C622.286 869.792 620.301 869.559 618.323 869.323L617.655 871.193ZM629.606 872.576C631.608 872.801 633.616 873.023 635.629 873.242L636.276 871.37C634.265 871.151 632.26 870.929 630.26 870.704L629.606 872.576ZM641.685 873.892C643.709 874.106 645.739 874.317 647.773 874.525L648.407 872.651C646.374 872.443 644.347 872.233 642.325 872.019L641.685 873.892ZM653.894 875.142C655.94 875.344 657.991 875.544 660.047 875.741L660.667 873.866C658.613 873.669 656.564 873.469 654.521 873.267L653.894 875.142ZM666.233 876.323C668.3 876.515 670.373 876.703 672.451 876.889L673.057 875.012C670.981 874.827 668.911 874.638 666.846 874.447L666.233 876.323ZM678.702 877.437C680.783 877.616 682.869 877.792 684.96 877.966L685.552 876.088C683.463 875.915 681.38 875.739 679.301 875.56L678.702 877.437ZM690.849 878.445C692.817 878.603 694.79 878.757 696.767 878.91L697.347 877.031C695.372 876.879 693.401 876.724 691.435 876.567L690.849 878.445ZM702.714 879.359C704.701 879.506 706.693 879.651 708.689 879.793L709.256 877.913C707.262 877.771 705.272 877.627 703.287 877.48L702.714 879.359ZM714.693 880.212C716.699 880.349 718.71 880.483 720.726 880.615L721.281 878.735C719.267 878.603 717.258 878.469 715.254 878.332L714.693 880.212ZM726.788 881.003C728.814 881.13 730.844 881.254 732.879 881.376L733.422 879.494C731.389 879.373 729.36 879.249 727.337 879.122L726.788 881.003ZM738.999 881.732C741.044 881.849 743.094 881.963 745.149 882.074L745.679 880.192C743.626 880.081 741.579 879.967 739.536 879.851L738.999 881.732ZM751.327 882.399C753.392 882.505 755.461 882.609 757.535 882.709L758.053 880.827C755.981 880.726 753.914 880.623 751.851 880.517L751.327 882.399ZM763.772 883.003C765.856 883.099 767.945 883.191 770.038 883.281L770.544 881.398C768.453 881.308 766.366 881.216 764.284 881.12L763.772 883.003ZM776.334 883.543C778.438 883.628 780.546 883.71 782.659 883.79L783.153 881.906C781.042 881.827 778.936 881.745 776.834 881.66L776.334 883.543ZM789.014 884.02C791.08 884.092 793.15 884.161 795.225 884.228L795.707 882.344C793.634 882.277 791.566 882.208 789.502 882.136L789.014 884.02ZM801.204 884.413C803.202 884.473 805.203 884.53 807.209 884.585L807.68 882.7C805.676 882.645 803.676 882.588 801.681 882.529L801.204 884.413ZM813.24 884.741C815.255 884.791 817.274 884.839 819.297 884.884L819.757 883C817.736 882.954 815.718 882.907 813.706 882.857L813.24 884.741ZM825.38 885.013C827.412 885.053 829.448 885.091 831.488 885.127L831.938 883.242C829.899 883.206 827.864 883.168 825.834 883.128L825.38 885.013ZM837.623 885.226C839.673 885.257 841.726 885.286 843.785 885.312L844.223 883.427C842.167 883.401 840.115 883.372 838.067 883.341L837.623 885.226ZM849.972 885.382C852.039 885.404 854.11 885.422 856.186 885.439L856.613 883.553C854.539 883.537 852.47 883.518 850.405 883.497L849.972 885.382ZM862.426 885.48C864.51 885.492 866.599 885.5 868.692 885.507L869.109 883.622C867.018 883.615 864.931 883.606 862.848 883.595L862.426 885.48ZM874.984 885.519C877.086 885.521 879.193 885.52 881.304 885.517L881.71 883.631C879.601 883.635 877.496 883.636 875.396 883.634L874.984 885.519ZM887.649 885.499C889.769 885.491 891.893 885.48 894.022 885.467L894.418 883.582C892.291 883.595 890.168 883.606 888.051 883.614L887.649 885.499ZM900.421 885.42C902.558 885.401 904.7 885.381 906.846 885.358L907.232 883.472C905.087 883.496 902.947 883.516 900.811 883.535L900.421 885.42ZM913.097 885.283C915.107 885.257 917.121 885.228 919.138 885.198L919.514 883.313C917.498 883.343 915.486 883.372 913.478 883.398L913.097 885.283ZM925.203 885.1C927.228 885.065 929.257 885.027 931.29 884.988L931.656 883.103C929.624 883.143 927.597 883.18 925.573 883.215L925.203 885.1ZM937.401 884.863C939.442 884.819 941.487 884.773 943.536 884.725L943.892 882.841C941.845 882.889 939.801 882.935 937.762 882.979L937.401 884.863ZM949.694 884.574C951.75 884.521 953.811 884.466 955.875 884.409L956.222 882.525C954.159 882.582 952.1 882.637 950.045 882.689L949.694 884.574ZM962.08 884.231C964.153 884.169 966.229 884.106 968.309 884.039L968.646 882.155C966.567 882.221 964.493 882.285 962.422 882.347L962.08 884.231ZM974.561 883.834C976.649 883.764 978.741 883.691 980.837 883.616L981.165 881.732C979.071 881.807 976.98 881.88 974.894 881.95L974.561 883.834ZM987.137 883.384C989.241 883.304 991.349 883.222 993.461 883.138L993.779 881.254C991.669 881.338 989.562 881.42 987.46 881.5L987.137 883.384ZM999.808 882.878C1001.93 882.789 1004.05 882.698 1006.18 882.605L1006.49 880.722C1004.36 880.815 1002.24 880.906 1000.12 880.995L999.808 882.878ZM1012.57 882.318C1014.71 882.22 1016.85 882.12 1018.99 882.017L1019.29 880.135C1017.15 880.237 1015.01 880.337 1012.88 880.435L1012.57 882.318ZM1025.44 881.703C1027.59 881.596 1029.74 881.486 1031.9 881.374L1032.19 879.492C1030.04 879.604 1027.88 879.713 1025.73 879.82L1025.44 881.703ZM1038.33 881.035C1040.35 880.927 1042.38 880.816 1044.41 880.704L1044.69 878.822C1042.66 878.934 1040.63 879.045 1038.61 879.154L1038.33 881.035ZM1050.5 880.359C1052.54 880.243 1054.58 880.124 1056.63 880.003L1056.9 878.122C1054.86 878.243 1052.82 878.361 1050.78 878.478L1050.5 880.359ZM1062.77 879.634C1064.82 879.51 1066.87 879.383 1068.93 879.254L1069.19 877.373C1067.14 877.502 1065.09 877.629 1063.04 877.754L1062.77 879.634ZM1075.11 878.86C1077.18 878.727 1079.25 878.592 1081.32 878.455L1081.57 876.575C1079.5 876.712 1077.44 876.847 1075.37 876.98L1075.11 878.86ZM1087.54 878.037C1089.62 877.895 1091.71 877.752 1093.79 877.606L1094.04 875.727C1091.96 875.872 1089.87 876.016 1087.8 876.157L1087.54 878.037ZM1100.06 877.163C1102.15 877.014 1104.25 876.862 1106.35 876.708L1106.59 874.829C1104.49 874.983 1102.4 875.135 1100.3 875.284L1100.06 877.163ZM1112.66 876.24C1114.77 876.082 1116.88 875.922 1118.99 875.76L1119.23 873.881C1117.11 874.043 1115 874.203 1112.9 874.361L1112.66 876.24ZM1125.35 875.266C1127.47 875.1 1129.6 874.931 1131.72 874.761L1131.95 872.883C1129.82 873.054 1127.7 873.222 1125.58 873.388L1125.35 875.266ZM1138.12 874.242C1140.26 874.067 1142.4 873.89 1144.54 873.711L1144.76 871.834C1142.61 872.013 1140.48 872.19 1138.34 872.365L1138.12 874.242ZM1150.98 873.167C1153.13 872.984 1155.28 872.798 1157.44 872.611L1157.65 870.734C1155.49 870.922 1153.34 871.107 1151.19 871.291L1150.98 873.167ZM1163.92 872.041C1166.09 871.849 1168.26 871.655 1170.43 871.459L1170.63 869.583C1168.46 869.779 1166.29 869.973 1164.13 870.165L1163.92 872.041ZM1176.79 870.879C1178.82 870.692 1180.86 870.503 1182.9 870.312L1183.09 868.437C1181.05 868.628 1179.02 868.817 1176.98 869.004L1176.79 870.879ZM1189.03 869.734C1191.08 869.539 1193.13 869.342 1195.19 869.144L1195.37 867.27C1193.32 867.468 1191.27 867.665 1189.22 867.859L1189.03 869.734ZM1201.36 868.543C1203.42 868.341 1205.48 868.137 1207.55 867.931L1207.72 866.057C1205.66 866.263 1203.6 866.467 1201.54 866.669L1201.36 868.543ZM1213.75 867.307C1215.83 867.097 1217.9 866.885 1219.98 866.671L1220.15 864.799C1218.07 865.012 1216 865.224 1213.93 865.433L1213.75 867.307ZM1226.23 866.025C1228.31 865.807 1230.4 865.588 1232.5 865.366L1232.66 863.494C1230.57 863.716 1228.48 863.935 1226.4 864.152L1226.23 866.025ZM1238.78 864.697C1240.88 864.472 1242.98 864.244 1245.08 864.015L1245.24 862.144C1243.14 862.373 1241.04 862.6 1238.94 862.825L1238.78 864.697ZM1251.41 863.323C1253.52 863.09 1255.63 862.855 1257.75 862.618L1257.9 860.748C1255.78 860.984 1253.67 861.219 1251.56 861.452L1251.41 863.323ZM1264.11 861.902C1266.24 861.661 1268.36 861.419 1270.49 861.174L1270.64 859.305C1268.51 859.549 1266.38 859.791 1264.26 860.032L1264.11 861.902ZM1276.9 860.435C1279.03 860.187 1281.17 859.936 1283.32 859.684L1283.45 857.815C1281.31 858.067 1279.17 858.317 1277.03 858.566L1276.9 860.435ZM1289.76 858.921C1291.91 858.665 1294.06 858.407 1296.21 858.146L1296.34 856.278C1294.19 856.538 1292.04 856.796 1289.89 857.053L1289.76 858.921ZM1302.69 857.36C1304.86 857.096 1307.02 856.83 1309.19 856.562L1309.31 854.695C1307.14 854.962 1304.98 855.228 1302.82 855.492L1302.69 857.36ZM1315.71 855.752C1317.87 855.481 1320.04 855.209 1322.21 854.934L1322.32 853.068C1320.15 853.342 1317.99 853.615 1315.83 853.885L1315.71 855.752ZM1328.34 854.155C1330.38 853.894 1332.43 853.631 1334.48 853.366L1334.59 851.5C1332.54 851.765 1330.49 852.028 1328.45 852.289L1328.34 854.155ZM1340.64 852.566C1342.7 852.298 1344.76 852.028 1346.82 851.756L1346.92 849.891C1344.86 850.163 1342.8 850.433 1340.75 850.701L1340.64 852.566ZM1353.02 850.935C1355.09 850.66 1357.16 850.383 1359.23 850.104L1359.33 848.24C1357.25 848.519 1355.18 848.796 1353.12 849.071L1353.02 850.935ZM1365.46 849.262C1367.54 848.98 1369.62 848.695 1371.71 848.41L1371.8 846.547C1369.71 846.832 1367.63 847.116 1365.55 847.399L1365.46 849.262ZM1377.97 847.547C1380.06 847.257 1382.16 846.966 1384.26 846.673L1384.34 844.811C1382.24 845.104 1380.15 845.395 1378.06 845.684L1377.97 847.547ZM1390.55 845.789C1392.66 845.492 1394.76 845.194 1396.87 844.894L1396.95 843.033C1394.84 843.333 1392.74 843.631 1390.63 843.927L1390.55 845.789ZM1403.21 843.988C1405.32 843.685 1407.44 843.379 1409.56 843.072L1409.63 841.212C1407.51 841.519 1405.39 841.824 1403.28 842.128L1403.21 843.988ZM1415.93 842.145C1418.05 841.834 1420.18 841.522 1422.31 841.207L1422.38 839.348C1420.24 839.662 1418.12 839.975 1415.99 840.285L1415.93 842.145ZM1428.72 840.259C1430.85 839.941 1432.99 839.621 1435.14 839.3L1435.19 837.441C1433.05 837.763 1430.91 838.082 1428.78 838.4L1428.72 840.259ZM1441.58 838.33C1443.72 838.005 1445.88 837.678 1448.03 837.349L1448.08 835.491C1445.93 835.82 1443.78 836.147 1441.63 836.472L1441.58 838.33ZM1454.51 836.357C1456.67 836.025 1458.83 835.69 1461 835.354L1461.04 833.498C1458.88 833.834 1456.71 834.168 1454.55 834.5L1454.51 836.357ZM1467.51 834.341C1469.68 834.001 1471.85 833.66 1474.03 833.316L1474.07 831.461C1471.89 831.804 1469.72 832.145 1467.55 832.485L1467.51 834.341ZM1480.51 832.291C1482.56 831.966 1484.6 831.64 1486.65 831.312L1486.68 829.457C1484.64 829.785 1482.59 830.111 1480.55 830.436L1480.51 832.291ZM1492.81 830.324C1494.86 829.993 1496.92 829.66 1498.98 829.326L1499 827.472C1496.94 827.806 1494.89 828.139 1492.84 828.469L1492.81 830.324ZM1505.16 828.318C1507.22 827.981 1509.29 827.642 1511.36 827.301L1511.38 825.448C1509.31 825.789 1507.25 826.127 1505.19 826.465L1505.16 828.318ZM1517.58 826.274C1519.65 825.93 1521.73 825.585 1523.81 825.237L1523.83 823.385C1521.75 823.732 1519.67 824.078 1517.6 824.421L1517.58 826.274ZM1530.06 824.191C1532.14 823.84 1534.23 823.488 1536.32 823.135L1536.33 821.284C1534.24 821.637 1532.15 821.989 1530.07 822.339L1530.06 824.191ZM1542.6 822.069C1544.69 821.712 1546.79 821.353 1548.89 820.993L1548.9 819.143C1546.8 819.503 1544.7 819.861 1542.61 820.218L1542.6 822.069ZM1555.2 819.907C1557.31 819.544 1559.42 819.179 1561.53 818.812L1561.53 816.963C1559.42 817.329 1557.31 817.694 1555.2 818.058L1555.2 819.907ZM1567.87 817.707C1569.98 817.337 1572.1 816.965 1574.22 816.592L1574.22 814.743C1572.1 815.116 1569.98 815.488 1567.87 815.858L1567.87 817.707ZM1580.6 815.467C1582.72 815.09 1584.85 814.712 1586.99 814.332L1586.97 812.484C1584.84 812.864 1582.72 813.242 1580.59 813.619L1580.6 815.467ZM1593.39 813.187C1595.53 812.804 1597.67 812.419 1599.81 812.032L1599.79 810.186C1597.65 810.572 1595.51 810.957 1593.38 811.34L1593.39 813.187ZM1606.24 810.867C1608.39 810.477 1610.54 810.086 1612.7 809.693L1612.67 807.847C1610.52 808.24 1608.37 808.632 1606.23 809.021L1606.24 810.867ZM1619.16 808.508C1621.32 808.111 1623.48 807.713 1625.64 807.313L1625.62 805.469C1623.46 805.868 1621.3 806.266 1619.14 806.663L1619.16 808.508ZM1632.14 806.108C1634.31 805.705 1636.48 805.3 1638.66 804.893L1638.63 803.05C1636.45 803.456 1634.28 803.861 1632.11 804.264L1632.14 806.108ZM1645.19 803.669C1646.28 803.463 1647.37 803.258 1648.46 803.052L1648.43 801.209C1647.34 801.415 1646.24 801.62 1645.15 801.825L1645.19 803.669Z" fill="#836F69"/>
</g>
<defs>
<clipPath id="clip0_792_8656">
<rect width="1440" height="901" fill="white"/>
</clipPath>
</defs>
</svg>
